<?xml version="1.0" standalone="no"?>
<!DOCTYPE svg PUBLIC "-//W3C//DTD SVG 20010904//EN"
 "http://www.w3.org/TR/2001/REC-SVG-20010904/DTD/svg10.dtd">
<svg version="1.0" xmlns="http://www.w3.org/2000/svg"
 width="293.000000pt" height="293.000000pt" viewBox="0 0 293.000000 293.000000"
 preserveAspectRatio="xMidYMid meet">
<metadata>
Created by potrace 1.14, written by Peter Selinger 2001-2017
</metadata>
<g transform="translate(0.000000,293.000000) scale(0.100000,-0.100000)"
fill="#000000" stroke="none">
<path d="M0 1465 l0 -1465 1465 0 1465 0 0 1465 0 1465 -1465 0 -1465 0 0
-1465z m1810 305 l0 -100 135 0 135 0 0 -45 0 -45 -135 0 -135 0 0 -170 c0
-201 8 -232 67 -257 38 -15 143 -14 186 2 15 6 17 1 17 -39 0 -41 -3 -46 -27
-53 -16 -5 -71 -8 -123 -8 -85 0 -100 3 -141 27 -76 45 -83 69 -87 301 l-4
197 -84 0 -84 0 0 45 0 45 85 0 84 0 3 87 3 87 45 12 c25 7 48 12 53 13 4 1 7
-44 7 -99z m-581 74 c106 -31 161 -115 148 -227 -9 -70 -48 -125 -115 -159
-44 -22 -49 -28 -32 -33 29 -9 71 -75 144 -228 l65 -137 -65 0 c-35 0 -64 4
-64 9 0 5 -32 75 -71 156 -79 165 -99 185 -181 185 l-48 0 0 -175 0 -175 -55
0 -55 0 0 400 0 400 138 0 c96 0 154 -5 191 -16z m-589 -454 l0 -50 -185 0
-185 0 0 50 0 50 185 0 185 0 0 -50z m2070 0 l0 -50 -185 0 -185 0 0 50 0 50
185 0 185 0 0 -50z"/>
<path d="M1010 1635 l0 -135 67 0 c125 0 191 58 180 157 -9 79 -62 113 -177
113 l-70 0 0 -135z"/>
</g>
</svg>
